<svg width="40" height="42" viewBox="0 0 40 42" fill="none" xmlns="http://www.w3.org/2000/svg">
<g id="Group 48096865">
<path id="Vector" d="M21.1796 0V2.48463C19.5289 2.4878 17.9292 2.70831 16.406 3.11767L15.7695 0.716684C17.4956 0.252202 19.309 0.00316836 21.1796 0Z" fill="white"/>
<path id="Vector_2" d="M27.3272 38.6541C25.4148 39.3362 23.3615 39.7071 21.2239 39.7071H21.1836V37.1356H21.2239C21.5032 37.1356 21.78 37.1278 22.0555 37.1135C22.0945 37.1116 22.1348 37.1097 22.1738 37.1064C22.2191 37.1045 22.2637 37.1019 22.3078 37.098C22.4046 37.0909 22.5015 37.0837 22.5984 37.0753C22.6336 37.0727 22.6695 37.0688 22.7053 37.0656C22.8683 37.0507 23.0312 37.0325 23.1923 37.0124C23.2596 37.004 23.3275 36.9955 23.3948 36.9858C23.4521 36.978 23.5093 36.9702 23.5653 36.9612C23.7396 36.9352 23.9119 36.9067 24.0843 36.8749C24.1466 36.8633 24.2089 36.8516 24.2705 36.8399C24.2749 36.8386 24.2793 36.838 24.2831 36.8373C24.3447 36.825 24.4064 36.8127 24.468 36.7997C24.67 36.7569 24.87 36.7109 25.0694 36.661C25.1487 36.6409 25.2273 36.6208 25.3066 36.5994C25.3192 36.5961 25.3311 36.5935 25.3437 36.589C25.418 36.5689 25.4928 36.5488 25.5671 36.5268C25.6168 36.5125 25.6664 36.4982 25.7168 36.4827C25.786 36.4619 25.8552 36.4418 25.9237 36.4198C25.9451 36.4133 25.9665 36.4068 25.9873 36.3997C26.0584 36.377 26.1295 36.3536 26.1999 36.3303C26.2339 36.3193 26.2672 36.3076 26.3012 36.2966C26.3175 36.2914 26.3339 36.2856 26.3496 36.2797C26.3968 36.2642 26.4446 36.2473 26.4918 36.2304C26.4987 36.2285 26.5056 36.2259 26.5126 36.2227L27.3272 38.6541Z" fill="white"/>
<path id="Vector_3" d="M39.6989 21.0725C39.6989 22.8882 39.4382 24.6438 38.9528 26.3037C37.9422 29.7571 35.9576 32.8001 33.312 35.1238L31.6328 33.2384C31.709 33.1706 31.7852 33.1029 31.8608 33.0345C31.9261 32.9743 31.9914 32.9141 32.0555 32.8533C32.1247 32.7887 32.1932 32.7222 32.2617 32.6551C32.2956 32.6222 32.3302 32.588 32.3642 32.5551C32.402 32.5171 32.4397 32.4797 32.4775 32.4411C32.5396 32.3777 32.6018 32.3131 32.6645 32.2485C32.7298 32.1795 32.7958 32.1105 32.8599 32.0402C32.8951 32.0022 32.9303 31.9635 32.9649 31.9249C32.9937 31.8926 33.0232 31.8609 33.052 31.828C33.1154 31.7571 33.1788 31.6855 33.2403 31.6133C33.3024 31.5411 33.3639 31.4683 33.4247 31.3955C33.4759 31.334 33.5272 31.272 33.5771 31.2093C33.7097 31.0452 33.8384 30.8787 33.9639 30.7096C33.9883 30.6773 34.012 30.6456 34.0357 30.6127C34.1202 30.4974 34.2028 30.3822 34.2841 30.265C34.3431 30.1801 34.4013 30.0946 34.459 30.0085C34.4814 29.9737 34.5044 29.9395 34.5269 29.9053C34.5499 29.8705 34.5723 29.8356 34.5947 29.8008C34.6293 29.747 34.6633 29.6938 34.6959 29.6399C34.7235 29.5969 34.751 29.5538 34.7773 29.5101C34.8247 29.4335 34.8714 29.3549 34.9182 29.2764C34.9623 29.2023 35.0052 29.1269 35.0482 29.0522C35.0706 29.0136 35.093 28.9743 35.1148 28.9351C35.1519 28.8679 35.189 28.8014 35.2256 28.7337C35.2403 28.7058 35.2563 28.6773 35.271 28.6488C35.2915 28.6121 35.3107 28.5747 35.3299 28.5373C35.3504 28.4987 35.3703 28.4594 35.3901 28.4208C35.4587 28.2891 35.524 28.1561 35.5874 28.0218C35.6079 27.9794 35.6277 27.9376 35.6476 27.8952C35.6713 27.8445 35.695 27.7926 35.718 27.7419C35.7494 27.6735 35.7795 27.6057 35.8103 27.5367C35.8231 27.5076 35.8359 27.4778 35.848 27.4487C35.8801 27.3765 35.9102 27.3043 35.9409 27.2308C35.9422 27.2283 35.9428 27.2258 35.9441 27.2226C35.9755 27.1472 36.0062 27.0706 36.0363 26.9946C36.0427 26.98 36.0478 26.9661 36.053 26.9509C36.0869 26.8648 36.1202 26.7774 36.1522 26.6912C36.1689 26.6463 36.1855 26.6007 36.2015 26.5557C36.2188 26.5089 36.2355 26.4626 36.2515 26.4158C36.2835 26.3246 36.3143 26.234 36.345 26.1422C36.3578 26.1035 36.3706 26.0655 36.3828 26.0263C36.4302 25.88 36.4756 25.7324 36.5179 25.5849C36.5704 25.4056 36.6204 25.2251 36.6652 25.0434C36.6883 24.9522 36.7107 24.8616 36.7325 24.7698L36.7587 24.6552C36.7715 24.6013 36.783 24.5481 36.7946 24.4943C36.8151 24.4025 36.8336 24.3106 36.8522 24.2175C36.8612 24.1732 36.8695 24.1295 36.8778 24.0845C36.8881 24.0345 36.897 23.9832 36.9054 23.9332C36.922 23.8407 36.938 23.7483 36.9528 23.6558C36.9675 23.5633 36.9816 23.4702 36.9957 23.3778C37.0027 23.3309 37.0091 23.284 37.0155 23.2372C37.0219 23.1897 37.0277 23.1428 37.0341 23.0959C37.0405 23.0484 37.0463 23.0009 37.0507 22.9541C37.0559 22.9066 37.0616 22.8597 37.0661 22.8122C37.0661 22.8122 37.0668 22.8122 37.0668 22.8116C37.0674 22.8103 37.0674 22.8091 37.0668 22.8072C37.0738 22.7483 37.0796 22.6894 37.0853 22.6298C37.093 22.5576 37.0994 22.4854 37.1052 22.4126C37.1122 22.3372 37.1173 22.2612 37.1225 22.1859C37.1263 22.127 37.1302 22.0675 37.1334 22.0086C37.1423 21.8629 37.1481 21.7153 37.1526 21.5684C37.1545 21.5133 37.1558 21.4588 37.1564 21.4037C37.1577 21.3822 37.1577 21.3607 37.1577 21.3391L37.1596 21.227C37.1603 21.1758 37.1603 21.1232 37.1603 21.0713C37.1603 20.9927 37.1596 20.9155 37.1583 20.8376C37.1571 20.7153 37.1538 20.5931 37.1487 20.4721C37.1474 20.4221 37.1455 20.3727 37.1423 20.3227C37.1391 20.2429 37.1346 20.1644 37.1302 20.0852C37.127 20.0314 37.1231 19.9782 37.1193 19.9243C37.1154 19.8667 37.1109 19.8084 37.1065 19.7508C37.0584 19.1542 36.9771 18.5659 36.8657 17.9896C36.8496 17.906 36.8324 17.823 36.8151 17.7407C36.8131 17.7293 36.8106 17.7179 36.808 17.7071C36.7997 17.6685 36.792 17.6305 36.783 17.5919C36.6908 17.1739 36.5826 16.7616 36.4584 16.3563C36.4462 16.3138 36.4334 16.272 36.4199 16.2302C36.3264 15.9332 36.2252 15.6394 36.1151 15.3506C36.0824 15.2638 36.0485 15.1764 36.0145 15.0909C35.98 15.0048 35.9447 14.918 35.9082 14.8332C35.8871 14.7819 35.8653 14.7306 35.8436 14.6799C35.777 14.5254 35.7078 14.3715 35.6367 14.2188C35.604 14.1505 35.5714 14.0814 35.5381 14.0137C35.4587 13.8503 35.3767 13.6894 35.2922 13.5292C35.2736 13.4943 35.255 13.4589 35.2358 13.424C35.2153 13.3867 35.1955 13.3493 35.175 13.3119C35.1397 13.2486 35.1039 13.184 35.068 13.1213C35.0321 13.058 34.9956 12.9947 34.9591 12.932C34.8573 12.7565 34.751 12.583 34.6415 12.4114C34.6043 12.3525 34.5666 12.2936 34.5281 12.2347C34.4846 12.1688 34.4417 12.1036 34.3975 12.039C34.1618 11.6907 33.9133 11.3506 33.6514 11.0213C33.5553 10.9003 33.4574 10.7806 33.3575 10.6622C33.3306 10.6293 33.3024 10.5976 33.2755 10.5647C33.2339 10.5159 33.1922 10.4678 33.1506 10.4203C32.7644 9.98011 32.3552 9.56023 31.9248 9.16251L33.6719 7.33984C35.1673 8.72236 36.4379 10.3417 37.4209 12.1365C38.8759 14.7933 39.7021 17.8363 39.7021 21.07L39.6989 21.0725Z" fill="white"/>
<path id="Vector_4" d="M28.8861 4.07257L27.8496 6.50903C27.7995 6.48403 27.7482 6.4597 27.6981 6.43604C27.6474 6.41171 27.5961 6.38806 27.5454 6.3644C27.5034 6.3448 27.4615 6.32588 27.4196 6.30628C27.4014 6.29817 27.3839 6.29006 27.3657 6.28262C27.3232 6.26302 27.2806 6.24477 27.238 6.22653C27.188 6.20422 27.1373 6.18327 27.0872 6.16165C27.0284 6.13731 26.9701 6.11298 26.9113 6.08865C26.8531 6.06432 26.7943 6.04134 26.7354 6.01769C26.6459 5.98187 26.5564 5.9474 26.4663 5.91496C26.4375 5.90414 26.4087 5.89265 26.3799 5.88252C26.3511 5.8717 26.3223 5.86089 26.2935 5.85143C26.2366 5.83048 26.179 5.81087 26.1214 5.79128C26.0551 5.76762 25.9887 5.74532 25.9217 5.72437C25.8779 5.7095 25.8341 5.69598 25.7897 5.68179C25.7815 5.67841 25.7747 5.67638 25.7665 5.67368C25.7296 5.66151 25.6927 5.65002 25.6545 5.63853C25.6451 5.63583 25.6363 5.63313 25.6276 5.62975C25.5506 5.60609 25.4736 5.58311 25.396 5.56148C25.3253 5.54053 25.2545 5.52093 25.1832 5.50133C24.9428 5.4351 24.6993 5.37495 24.4546 5.32156C24.3851 5.30669 24.3163 5.29182 24.2462 5.27695C24.2368 5.27492 24.2268 5.27289 24.218 5.27154C24.1736 5.26208 24.1285 5.25397 24.0847 5.24518C24.069 5.2418 24.0528 5.23842 24.0371 5.23572C23.9664 5.2222 23.8963 5.20936 23.8256 5.1972C23.7905 5.19044 23.7548 5.18436 23.7192 5.17895C23.6841 5.17354 23.6491 5.16746 23.6134 5.16205C23.5427 5.15056 23.4719 5.13975 23.4006 5.12894C23.3399 5.12015 23.2785 5.11136 23.2166 5.10325C23.1552 5.09447 23.0926 5.08703 23.0313 5.0796C22.9956 5.07554 22.9593 5.07081 22.9236 5.06743C22.913 5.06541 22.9017 5.06473 22.8905 5.06405C22.8516 5.05932 22.8116 5.05459 22.7722 5.05121C22.7515 5.04851 22.7315 5.04648 22.7102 5.04445C22.672 5.0404 22.6332 5.03634 22.595 5.03296C22.5881 5.03229 22.5813 5.03161 22.5744 5.03161C22.4905 5.0235 22.4066 5.01742 22.3209 5.01066C22.2752 5.00728 22.2295 5.0039 22.1838 5.0012C22.0711 4.99376 21.9591 4.98768 21.8452 4.98363C21.7832 4.98092 21.7206 4.9789 21.6587 4.97754C21.5767 4.97484 21.494 4.97349 21.4114 4.97281C21.3495 4.97214 21.2862 4.97146 21.2237 4.97146H21.1836V2.29102H21.2237C23.9558 2.29102 26.5502 2.92767 28.8848 4.0719L28.8861 4.07257Z" fill="white"/>
<path id="Vector_5" d="M21.1793 39.5753V41.9993C17.8631 41.9937 14.7229 41.2673 11.918 39.974L12.9925 37.7812C15.4718 38.9262 18.2478 39.5691 21.1793 39.5753Z" fill="white"/>
<path id="Vector_6" d="M21.1823 34.858V37.418C20.9678 37.4174 20.7533 37.413 20.5406 37.4036C20.5093 37.4029 20.4793 37.401 20.4481 37.3998C20.4243 37.3991 20.4012 37.3979 20.3774 37.3966C20.3342 37.3947 20.2917 37.3922 20.2486 37.3891C20.2467 37.3891 20.2442 37.3891 20.2417 37.3884C20.1748 37.3853 20.1097 37.3803 20.0428 37.3752C20.0365 37.3752 20.0309 37.3746 20.0247 37.374C19.9552 37.3689 19.8852 37.3633 19.8158 37.3576C19.7464 37.3513 19.6769 37.345 19.6075 37.3374C19.5812 37.3356 19.5537 37.333 19.5268 37.3293C19.4818 37.3248 19.4374 37.3198 19.393 37.3148C19.3592 37.3116 19.3261 37.3072 19.2923 37.3028C19.2366 37.2959 19.1816 37.2896 19.126 37.282C19.0891 37.2776 19.0515 37.272 19.014 37.2669C18.9765 37.2625 18.939 37.2568 18.9014 37.2512C18.8276 37.2405 18.7526 37.2291 18.6788 37.2172C18.6275 37.209 18.5768 37.2014 18.5262 37.192C18.4293 37.1763 18.3329 37.1586 18.236 37.1404C18.1997 37.1334 18.1628 37.1265 18.1259 37.119C18.0897 37.112 18.0534 37.1051 18.0165 37.0969C17.9846 37.0906 17.9527 37.0843 17.9202 37.0768C17.8877 37.0699 17.8564 37.0636 17.8239 37.056C17.7463 37.0396 17.6688 37.022 17.5912 37.0044C17.1541 36.9024 16.7232 36.7827 16.3004 36.6461C16.2697 36.636 16.2391 36.626 16.2084 36.6159C15.9527 36.5315 15.6994 36.4409 15.4492 36.3439C15.3885 36.3206 15.3279 36.2967 15.2666 36.2721C15.2065 36.2482 15.1471 36.2236 15.0871 36.1985C14.8695 36.1084 14.6549 36.0133 14.4429 35.9139C14.3879 35.8887 14.3329 35.8622 14.2778 35.8352C14.2747 35.8339 14.2709 35.8326 14.2678 35.8308C14.2584 35.8264 14.2497 35.8219 14.2409 35.8175C14.1915 35.7936 14.1421 35.7697 14.0927 35.7445C13.9951 35.696 13.8976 35.6469 13.8013 35.5953C13.7631 35.5751 13.7243 35.555 13.6862 35.5348C13.648 35.5141 13.6093 35.4939 13.5711 35.4725C13.533 35.4517 13.4954 35.4316 13.4573 35.4102C13.4191 35.3888 13.3816 35.3674 13.3435 35.3466C13.2684 35.3038 13.1927 35.261 13.1183 35.2162C13.0439 35.1722 12.9689 35.1281 12.8951 35.0828C12.8131 35.033 12.7312 34.9814 12.6499 34.9298C12.5849 34.8882 12.5204 34.8467 12.4567 34.8045C12.4204 34.7812 12.3841 34.7573 12.3485 34.7327C12.2947 34.6974 12.2415 34.6616 12.1884 34.625C12.1502 34.5992 12.1127 34.5734 12.0745 34.5463C12.0245 34.5111 11.9745 34.4764 11.9251 34.4406C11.9007 34.4236 11.8763 34.4059 11.8519 34.3883C11.81 34.3581 11.7687 34.3279 11.7274 34.297C11.6855 34.2668 11.6449 34.2366 11.603 34.2051C11.5354 34.1541 11.4685 34.1018 11.4016 34.0502C11.3278 33.9929 11.254 33.935 11.1815 33.8758C11.1514 33.8525 11.122 33.8286 11.0926 33.8046C11.0264 33.7505 10.9619 33.697 10.8969 33.6416C10.8637 33.6145 10.8312 33.5862 10.7993 33.5585C10.6198 33.4042 10.4435 33.2468 10.2709 33.085C10.2121 33.0296 10.1539 32.9748 10.0964 32.9181C9.87561 32.706 9.6611 32.4862 9.45284 32.2614C9.39217 32.1953 9.33151 32.1292 9.2721 32.0618C9.26146 32.0499 9.25083 32.0386 9.24083 32.0272C9.18391 31.9643 9.12763 31.8994 9.07322 31.8352C9.06884 31.8308 9.06509 31.8264 9.06134 31.822C9.02131 31.7754 8.98066 31.7281 8.94126 31.6803C8.76427 31.4694 8.59228 31.254 8.42655 31.0343C8.38778 30.9833 8.349 30.9317 8.31148 30.8807C8.21517 30.751 8.12135 30.62 8.02942 30.4872C8.02817 30.4853 8.02692 30.484 8.02629 30.4821C8.00003 30.4444 7.97313 30.4066 7.94749 30.3675C7.9156 30.3203 7.88433 30.2737 7.85243 30.2259C7.72172 30.0294 7.59539 29.8311 7.47406 29.629C7.4503 29.5893 7.42591 29.549 7.40214 29.5087C7.37775 29.4666 7.35273 29.4244 7.32834 29.3816C7.29832 29.3312 7.26955 29.2802 7.24141 29.2292C7.23203 29.2134 7.22265 29.1971 7.21452 29.1813C7.187 29.1316 7.15886 29.0819 7.13197 29.0315C7.12446 29.0195 7.11821 29.0069 7.11133 28.9943C7.07693 28.932 7.04316 28.8684 7.01001 28.8055C6.98812 28.7639 6.96686 28.723 6.94622 28.682C6.77173 28.3446 6.60913 28.0008 6.45966 27.6507C6.4434 27.6129 6.42714 27.5752 6.4115 27.5374C6.34021 27.368 6.27141 27.1968 6.207 27.0243C6.18386 26.9638 6.16134 26.9034 6.13883 26.8429C6.12382 26.8026 6.10881 26.7617 6.09442 26.7214C6.05252 26.6049 6.01249 26.4885 5.97372 26.3707C5.95683 26.3178 5.9387 26.2649 5.92244 26.212C5.89742 26.1346 5.87365 26.0578 5.84989 25.9797C5.84801 25.974 5.84614 25.9678 5.84489 25.9615C5.823 25.8897 5.80173 25.8173 5.7811 25.7449C5.77985 25.7405 5.77859 25.7354 5.77734 25.731L8.07007 25.0391C8.50348 26.4954 9.16953 27.8516 10.0251 29.0623C11.3791 30.9783 13.2084 32.5309 15.3404 33.5446C17.1115 34.3877 19.0922 34.8593 21.1817 34.8593L21.1823 34.858Z" fill="white"/>
<path id="Vector_7" d="M34.2961 24.9723C33.5553 27.4431 32.1237 29.6187 30.2233 31.2804C28.9005 32.4361 27.3507 33.3425 25.6484 33.9247C24.25 34.404 22.7477 34.6644 21.1836 34.6644V32.2098C22.4639 32.2098 23.6948 31.9996 24.8432 31.6121C26.2417 31.1402 27.5182 30.4049 28.6116 29.4662C30.1914 28.1102 31.3898 26.3296 32.0268 24.3027L34.2955 24.973L34.2961 24.9723Z" fill="white"/>
<path id="Vector_8" d="M4.72959 11.9216C3.26309 14.6154 2.42827 17.7171 2.42827 21.0172C2.42827 22.8323 2.68095 24.5867 3.15223 26.2468C3.71765 28.2396 4.59768 30.0951 5.73533 31.7546L3.75605 33.1904C2.46667 31.3134 1.46774 29.2138 0.825526 26.9587C0.287974 25.0735 0 23.0795 0 21.0172C0 17.2859 0.942574 13.7797 2.59858 10.733C4.07375 8.01771 6.11558 5.66715 8.56057 3.84766L9.99487 5.84797C7.83599 7.45315 6.03321 9.52679 4.72959 11.9222V11.9216Z" fill="white"/>
<path id="Vector_9" d="M21.1816 5.03835V7.2489C19.942 7.2489 18.7399 7.40799 17.5961 7.70513C15.9105 8.1434 14.3512 8.88314 12.9828 9.86306C11.3441 11.0355 9.97957 12.5497 8.9988 14.2984L6.96875 13.217C6.9992 13.1656 7.02838 13.113 7.05947 13.0616C7.08992 13.0102 7.12037 12.9582 7.15145 12.9075C7.17429 12.8691 7.19713 12.8307 7.2206 12.7936C7.4014 12.4983 7.59172 12.2092 7.79155 11.9263C7.81756 11.8891 7.84357 11.8526 7.87149 11.8155C7.94634 11.7096 8.02374 11.605 8.10241 11.5016C8.12778 11.4676 8.15379 11.4335 8.18043 11.3995C8.33015 11.2051 8.48431 11.0145 8.64291 10.8269C8.68414 10.778 8.72601 10.7291 8.76852 10.6802C8.81102 10.6313 8.85289 10.583 8.89603 10.5353C8.92965 10.4976 8.96391 10.4592 8.99816 10.4214C9.02481 10.3911 9.05272 10.362 9.08 10.3317C9.11997 10.2871 9.1612 10.2431 9.20244 10.1998C9.34835 10.0444 9.49743 9.89154 9.65032 9.74235C9.6814 9.71202 9.71122 9.68231 9.74231 9.65259C9.85332 9.54426 9.96751 9.43717 10.083 9.33194C10.1299 9.28861 10.1769 9.24713 10.2244 9.20442C10.2435 9.1877 10.2625 9.17037 10.2822 9.15366C10.3323 9.10909 10.3824 9.06514 10.4338 9.0218C10.5442 8.92647 10.6565 8.83238 10.7694 8.74015C10.8258 8.69372 10.8829 8.64791 10.94 8.6021C10.9851 8.5662 11.0314 8.53029 11.0777 8.49501C11.1043 8.47334 11.1323 8.4523 11.1595 8.43187C11.2395 8.3712 11.3188 8.31116 11.3993 8.25111C11.4805 8.19169 11.5617 8.13288 11.6429 8.07469C11.7425 8.00412 11.8434 7.93417 11.9443 7.86546C11.9449 7.86484 11.9455 7.86422 11.9468 7.8636C12.0141 7.81841 12.0807 7.77384 12.1485 7.72927C12.165 7.71813 12.1822 7.70698 12.1993 7.69584C12.2678 7.65127 12.337 7.60732 12.4061 7.56399C12.4575 7.53118 12.5102 7.49899 12.5622 7.46742C12.6142 7.43523 12.6675 7.40304 12.7201 7.37147C12.7722 7.3399 12.8261 7.30895 12.8787 7.278C12.9155 7.25695 12.9517 7.23528 12.9885 7.21486C13.0602 7.17276 13.1325 7.13253 13.2054 7.09229C13.2568 7.06381 13.3095 7.03534 13.3615 7.00748C13.4161 6.97777 13.47 6.94929 13.5252 6.92082C13.5804 6.89234 13.6349 6.86387 13.6901 6.83601C13.7453 6.80815 13.7999 6.7803 13.8557 6.75306C13.9109 6.72582 13.9661 6.69859 14.0225 6.67197C14.0784 6.64535 14.1336 6.61811 14.19 6.59211C14.2465 6.56611 14.3023 6.54011 14.3588 6.51411C14.4152 6.48873 14.4723 6.46335 14.5288 6.43797C14.5897 6.41074 14.6506 6.38412 14.7121 6.35812C14.7597 6.33769 14.8079 6.31726 14.8568 6.29807C15.0921 6.20027 15.3294 6.10803 15.5698 6.02137C15.6034 6.0096 15.6364 5.99784 15.6694 5.98608C15.7538 5.95575 15.8382 5.92666 15.9225 5.89818C15.9701 5.8827 16.0177 5.86599 16.0659 5.85113C16.0913 5.84247 16.1167 5.83442 16.142 5.82637C16.1883 5.81152 16.2359 5.79666 16.2829 5.78242C16.3431 5.76323 16.4034 5.74528 16.4637 5.72733C16.5239 5.70876 16.5848 5.69142 16.6451 5.67409C16.7663 5.63943 16.8881 5.60662 17.0112 5.57443C17.0797 5.55647 17.1475 5.53914 17.2167 5.52243C17.3201 5.49705 17.4229 5.47229 17.5263 5.44938C17.6062 5.43143 17.6855 5.4141 17.7661 5.39677C17.8505 5.37819 17.9355 5.36148 18.0205 5.34539C18.1055 5.32929 18.1899 5.31258 18.2755 5.29772H18.2761C18.3611 5.28286 18.4468 5.26739 18.5331 5.25377C18.5343 5.25377 18.535 5.25377 18.5356 5.25315C18.62 5.24015 18.705 5.22715 18.79 5.21477C18.8877 5.20053 18.9854 5.18691 19.0837 5.17391C19.1338 5.16711 19.1852 5.16153 19.2353 5.15534C19.3235 5.14482 19.413 5.13492 19.5011 5.12563C19.5449 5.1213 19.588 5.11696 19.6325 5.11325C19.6661 5.10954 19.6997 5.10582 19.734 5.10335C19.7676 5.10025 19.8012 5.09777 19.8355 5.09468C19.9268 5.08663 20.0182 5.08044 20.1102 5.07425C20.1419 5.07239 20.1723 5.06992 20.2034 5.06806C20.5269 5.04825 20.8518 5.03773 21.1804 5.03711L21.1816 5.03835Z" fill="white"/>
<path id="Vector_10" d="M33.1958 14.3884L31.2198 15.4091C30.6508 14.3333 29.9061 13.361 29.0215 12.5281C28.1283 11.6867 27.0922 10.9871 25.9536 10.468C24.505 9.80829 22.8881 9.43999 21.1836 9.43999V7.33984C23.2098 7.33984 25.1317 7.77175 26.8586 8.54711C28.2196 9.15771 29.4588 9.98093 30.5322 10.9744C31.5994 11.9599 32.5013 13.1127 33.1958 14.389V14.3884Z" fill="white"/>
<path id="Vector_11" d="M21.1421 20.8115L21.1826 32.3652C21.1693 32.3652 21.1554 32.3652 21.1421 32.3652C14.8263 32.3652 9.62891 27.1495 9.62891 20.8115C9.62891 14.4735 14.801 9.28003 21.1016 9.25781L21.1421 20.8115Z" fill="white"/>
<path id="Vector_12" d="M21 20.8146V13.8457C21.008 13.8457 20.9977 13.8457 21.0063 13.8457C24.7755 13.8457 27.8772 16.9916 27.8772 20.8146C27.8772 24.6376 24.7606 27.7698 21 27.7835V20.8146Z" fill="white"/>
</g>
</svg>
