<svg width="24" height="24" viewBox="0 0 24 24" fill="none" xmlns="http://www.w3.org/2000/svg">
<g id="Frame 48096605">
<g id="Group 48096944">
<path id="Vector" d="M8.75 20H14.25M17 10V11.3333C17 14.2667 14.525 16.6667 11.5 16.6667M11.5 16.6667C8.475 16.6667 6 14.2667 6 11.3333V10M11.5 16.6667V20" stroke="#373ED7" stroke-width="1.5" stroke-linecap="round" stroke-linejoin="round"/>
<path id="Vector_2" d="M11.5 4.00003C11.1384 3.99827 10.78 4.06604 10.4455 4.19942C10.111 4.33281 9.80715 4.52917 9.55143 4.77714C9.2957 5.02512 9.09321 5.31979 8.95565 5.64412C8.8181 5.96846 8.74821 6.31601 8.75003 6.6667V11.2917C8.75003 12.7584 9.99613 14 11.5 14C13.0039 14 14.25 12.7917 14.25 11.2917V6.6667C14.25 5.1667 13.0469 4.00003 11.5 4.00003Z" stroke="#373ED7" stroke-width="1.5" stroke-linecap="round" stroke-linejoin="round"/>
</g>
</g>
</svg>
