<svg width="48" height="48" viewBox="0 0 48 48" fill="none" xmlns="http://www.w3.org/2000/svg">
<g id="Group 48096945">
<rect id="Rectangle 851" width="48" height="48" rx="4" fill="#272DBC" fill-opacity="0.1"/>
<g id="apps">
<mask id="mask0_4484_25069" style="mask-type:alpha" maskUnits="userSpaceOnUse" x="8" y="8" width="32" height="32">
<rect id="Bounding box" x="8.5" y="8.5" width="31" height="31" fill="#D9D9D9" stroke="#373ED7"/>
</mask>
<g mask="url(#mask0_4484_25069)">
<path id="apps_2" d="M16.0007 34.6541C15.2707 34.6541 14.6461 34.3943 14.1262 33.8744C13.6063 33.3545 13.3465 32.7299 13.3465 31.9999C13.3465 31.2699 13.6063 30.6453 14.1262 30.1254C14.6461 29.6055 15.2707 29.3458 16.0007 29.3458C16.7306 29.3458 17.3552 29.6055 17.8751 30.1254C18.395 30.6453 18.6548 31.2699 18.6548 31.9999C18.6548 32.7299 18.395 33.3545 17.8751 33.8744C17.3552 34.3943 16.7306 34.6541 16.0007 34.6541ZM24.0007 34.6541C23.2707 34.6541 22.6461 34.3943 22.1262 33.8744C21.6063 33.3545 21.3465 32.7299 21.3465 31.9999C21.3465 31.2699 21.6063 30.6453 22.1262 30.1254C22.6461 29.6055 23.2707 29.3458 24.0007 29.3458C24.7306 29.3458 25.3552 29.6055 25.8751 30.1254C26.395 30.6453 26.6548 31.2699 26.6548 31.9999C26.6548 32.7299 26.395 33.3545 25.8751 33.8744C25.3552 34.3943 24.7306 34.6541 24.0007 34.6541ZM32.0007 34.6541C31.2707 34.6541 30.6461 34.3943 30.1262 33.8744C29.6063 33.3545 29.3465 32.7299 29.3465 31.9999C29.3465 31.2699 29.6063 30.6453 30.1262 30.1254C30.6461 29.6055 31.2707 29.3458 32.0007 29.3458C32.7306 29.3458 33.3552 29.6055 33.8751 30.1254C34.395 30.6453 34.6548 31.2699 34.6548 31.9999C34.6548 32.7299 34.395 33.3545 33.8751 33.8744C33.3552 34.3943 32.7306 34.6541 32.0007 34.6541ZM16.0007 26.6541C15.2707 26.6541 14.6461 26.3943 14.1262 25.8744C13.6063 25.3545 13.3465 24.7299 13.3465 23.9999C13.3465 23.2699 13.6063 22.6453 14.1262 22.1254C14.6461 21.6055 15.2707 21.3458 16.0007 21.3458C16.7306 21.3458 17.3552 21.6055 17.8751 22.1254C18.395 22.6453 18.6548 23.2699 18.6548 23.9999C18.6548 24.7299 18.395 25.3545 17.8751 25.8744C17.3552 26.3943 16.7306 26.6541 16.0007 26.6541ZM24.0007 26.6541C23.2707 26.6541 22.6461 26.3943 22.1262 25.8744C21.6063 25.3545 21.3465 24.7299 21.3465 23.9999C21.3465 23.2699 21.6063 22.6453 22.1262 22.1254C22.6461 21.6055 23.2707 21.3458 24.0007 21.3458C24.7306 21.3458 25.3552 21.6055 25.8751 22.1254C26.395 22.6453 26.6548 23.2699 26.6548 23.9999C26.6548 24.7299 26.395 25.3545 25.8751 25.8744C25.3552 26.3943 24.7306 26.6541 24.0007 26.6541ZM32.0007 26.6541C31.2707 26.6541 30.6461 26.3943 30.1262 25.8744C29.6063 25.3545 29.3465 24.7299 29.3465 23.9999C29.3465 23.2699 29.6063 22.6453 30.1262 22.1254C30.6461 21.6055 31.2707 21.3458 32.0007 21.3458C32.7306 21.3458 33.3552 21.6055 33.8751 22.1254C34.395 22.6453 34.6548 23.2699 34.6548 23.9999C34.6548 24.7299 34.395 25.3545 33.8751 25.8744C33.3552 26.3943 32.7306 26.6541 32.0007 26.6541ZM16.0007 18.6541C15.2707 18.6541 14.6461 18.3943 14.1262 17.8744C13.6063 17.3545 13.3465 16.7299 13.3465 15.9999C13.3465 15.2699 13.6063 14.6453 14.1262 14.1254C14.6461 13.6055 15.2707 13.3458 16.0007 13.3458C16.7306 13.3458 17.3552 13.6055 17.8751 14.1254C18.395 14.6453 18.6548 15.2699 18.6548 15.9999C18.6548 16.7299 18.395 17.3545 17.8751 17.8744C17.3552 18.3943 16.7306 18.6541 16.0007 18.6541ZM24.0007 18.6541C23.2707 18.6541 22.6461 18.3943 22.1262 17.8744C21.6063 17.3545 21.3465 16.7299 21.3465 15.9999C21.3465 15.2699 21.6063 14.6453 22.1262 14.1254C22.6461 13.6055 23.2707 13.3458 24.0007 13.3458C24.7306 13.3458 25.3552 13.6055 25.8751 14.1254C26.395 14.6453 26.6548 15.2699 26.6548 15.9999C26.6548 16.7299 26.395 17.3545 25.8751 17.8744C25.3552 18.3943 24.7306 18.6541 24.0007 18.6541ZM32.0007 18.6541C31.2707 18.6541 30.6461 18.3943 30.1262 17.8744C29.6063 17.3545 29.3465 16.7299 29.3465 15.9999C29.3465 15.2699 29.6063 14.6453 30.1262 14.1254C30.6461 13.6055 31.2707 13.3458 32.0007 13.3458C32.7306 13.3458 33.3552 13.6055 33.8751 14.1254C34.395 14.6453 34.6548 15.2699 34.6548 15.9999C34.6548 16.7299 34.395 17.3545 33.8751 17.8744C33.3552 18.3943 32.7306 18.6541 32.0007 18.6541Z" fill="#373ED7" stroke="#373ED7" stroke-width="0.025"/>
</g>
</g>
</g>
</svg>
