<svg width="31" height="32" viewBox="0 0 31 32" fill="none" xmlns="http://www.w3.org/2000/svg">
<g id="Group 48096865">
<path id="Vector" d="M16.1371 0V1.89305C14.8794 1.89546 13.6606 2.06348 12.5001 2.37536L12.0151 0.546045C13.3302 0.192154 14.7119 0.00241399 16.1371 0Z" fill="#2F58F2"/>
<path id="Vector_2" d="M20.819 29.4509C19.362 29.9706 17.7975 30.2532 16.1689 30.2532H16.1382V28.294H16.1689C16.3817 28.294 16.5926 28.288 16.8025 28.2772C16.8322 28.2757 16.8629 28.2742 16.8926 28.2717C16.9271 28.2702 16.9611 28.2683 16.9947 28.2653C17.0685 28.2599 17.1423 28.2544 17.2161 28.248C17.243 28.246 17.2703 28.2431 17.2976 28.2406C17.4218 28.2292 17.5459 28.2154 17.6686 28.2001C17.7199 28.1937 17.7716 28.1872 17.8229 28.1798C17.8665 28.1739 17.9102 28.168 17.9528 28.1611C18.0856 28.1413 18.2169 28.1196 18.3482 28.0954C18.3957 28.0865 18.4431 28.0776 18.4901 28.0687C18.4935 28.0677 18.4968 28.0672 18.4997 28.0667C18.5467 28.0573 18.5936 28.0479 18.6406 28.0381C18.7945 28.0055 18.9469 27.9704 19.0988 27.9323C19.1592 27.917 19.2191 27.9017 19.2795 27.8854C19.2891 27.8829 19.2982 27.881 19.3078 27.8775C19.3644 27.8622 19.4214 27.8469 19.478 27.8301C19.5158 27.8192 19.5537 27.8083 19.592 27.7965C19.6448 27.7807 19.6975 27.7654 19.7497 27.7486C19.766 27.7436 19.7823 27.7387 19.7981 27.7333C19.8523 27.716 19.9065 27.6982 19.9601 27.6804C19.986 27.672 20.0114 27.6631 20.0373 27.6547C20.0498 27.6508 20.0622 27.6463 20.0742 27.6419C20.1102 27.63 20.1466 27.6172 20.1825 27.6043C20.1878 27.6028 20.1931 27.6009 20.1984 27.5984L20.819 29.4509Z" fill="#2F58F2"/>
<path id="Vector_3" d="M30.2471 16.0548C30.2471 17.4382 30.0485 18.7757 29.6787 20.0404C28.9087 22.6716 27.3966 24.9901 25.3809 26.7605L24.1016 25.324C24.1596 25.2724 24.2177 25.2208 24.2753 25.1687C24.325 25.1228 24.3748 25.077 24.4236 25.0307C24.4763 24.9814 24.5285 24.9308 24.5807 24.8796C24.6066 24.8545 24.6329 24.8285 24.6588 24.8034C24.6876 24.7744 24.7164 24.746 24.7452 24.7165C24.7925 24.6683 24.8398 24.6191 24.8876 24.5698C24.9374 24.5172 24.9877 24.4647 25.0365 24.4111C25.0633 24.3821 25.0901 24.3527 25.1165 24.3233C25.1384 24.2987 25.1609 24.2745 25.1828 24.2494C25.2311 24.1954 25.2794 24.1409 25.3263 24.0859C25.3736 24.0309 25.4205 23.9754 25.4668 23.9199C25.5058 23.8731 25.5449 23.8258 25.5829 23.778C25.6839 23.6531 25.782 23.5261 25.8777 23.3973C25.8962 23.3727 25.9142 23.3486 25.9323 23.3235C25.9967 23.2357 26.0597 23.1479 26.1216 23.0586C26.1665 22.9939 26.2109 22.9288 26.2548 22.8632C26.2719 22.8366 26.2895 22.8106 26.3065 22.7845C26.3241 22.758 26.3412 22.7314 26.3583 22.7049C26.3846 22.6639 26.4105 22.6234 26.4354 22.5823C26.4563 22.5495 26.4773 22.5167 26.4973 22.4834C26.5334 22.425 26.5691 22.3652 26.6047 22.3054C26.6383 22.2489 26.671 22.1915 26.7037 22.1346C26.7208 22.1051 26.7379 22.0752 26.7545 22.0453C26.7828 21.9941 26.8111 21.9435 26.8389 21.8918C26.8501 21.8706 26.8623 21.8489 26.8735 21.8272C26.8891 21.7992 26.9038 21.7707 26.9184 21.7423C26.934 21.7128 26.9492 21.6829 26.9643 21.6535C27.0165 21.5531 27.0663 21.4518 27.1146 21.3495C27.1302 21.3172 27.1453 21.2853 27.1604 21.253C27.1785 21.2144 27.1965 21.1748 27.2141 21.1362C27.238 21.0841 27.261 21.0325 27.2844 20.9799C27.2941 20.9577 27.3039 20.935 27.3132 20.9128C27.3376 20.8578 27.3605 20.8028 27.3839 20.7468C27.3849 20.7449 27.3854 20.743 27.3864 20.7406C27.4103 20.6831 27.4337 20.6247 27.4566 20.5668C27.4615 20.5557 27.4654 20.5451 27.4693 20.5336C27.4952 20.4679 27.5205 20.4013 27.5449 20.3357C27.5576 20.3015 27.5703 20.2667 27.5825 20.2325C27.5957 20.1968 27.6084 20.1615 27.6206 20.1258C27.645 20.0563 27.6684 19.9873 27.6918 19.9174C27.7016 19.8879 27.7113 19.859 27.7206 19.8291C27.7567 19.7176 27.7913 19.6052 27.8235 19.4928C27.8636 19.3562 27.9016 19.2187 27.9358 19.0802C27.9533 19.0107 27.9704 18.9417 27.987 18.8717L28.007 18.7844C28.0168 18.7434 28.0256 18.7029 28.0343 18.6619C28.0499 18.5919 28.0641 18.5219 28.0782 18.451C28.0851 18.4172 28.0914 18.3839 28.0978 18.3497C28.1056 18.3115 28.1124 18.2725 28.1187 18.2343C28.1314 18.1639 28.1436 18.0934 28.1549 18.023C28.1661 17.9525 28.1768 17.8816 28.1875 17.8112C28.1929 17.7755 28.1978 17.7398 28.2027 17.704C28.2076 17.6679 28.2119 17.6322 28.2168 17.5964C28.2217 17.5603 28.2261 17.5241 28.2295 17.4884C28.2334 17.4522 28.2378 17.4165 28.2412 17.3803C28.2412 17.3803 28.2417 17.3803 28.2417 17.3798C28.2422 17.3788 28.2422 17.3779 28.2417 17.3764C28.2471 17.3315 28.2515 17.2867 28.2559 17.2413C28.2617 17.1863 28.2666 17.1313 28.271 17.0758C28.2763 17.0184 28.2803 16.9605 28.2842 16.9031C28.2871 16.8582 28.29 16.8128 28.2925 16.768C28.2993 16.657 28.3037 16.5445 28.3071 16.4326C28.3086 16.3906 28.3095 16.3491 28.31 16.3071C28.311 16.2907 28.311 16.2743 28.311 16.2579L28.3125 16.1725C28.3129 16.1334 28.3129 16.0934 28.3129 16.0538C28.3129 15.994 28.3125 15.9351 28.3115 15.8758C28.3105 15.7826 28.3081 15.6895 28.3042 15.5974C28.3032 15.5592 28.3017 15.5216 28.2993 15.4835C28.2968 15.4227 28.2934 15.3629 28.29 15.3025C28.2876 15.2615 28.2846 15.221 28.2817 15.18C28.2788 15.1361 28.2754 15.0917 28.272 15.0478C28.2354 14.5932 28.1734 14.145 28.0885 13.7059C28.0763 13.6422 28.0631 13.579 28.0499 13.5162C28.0485 13.5076 28.0465 13.4989 28.0446 13.4907C28.0382 13.4612 28.0324 13.4323 28.0256 13.4029C27.9553 13.0844 27.8728 12.7703 27.7782 12.4615C27.7689 12.4291 27.7591 12.3973 27.7489 12.3654C27.6777 12.1391 27.6006 11.9152 27.5166 11.6952C27.4917 11.6291 27.4659 11.5625 27.44 11.4974C27.4137 11.4318 27.3868 11.3656 27.359 11.301C27.3429 11.2619 27.3263 11.2228 27.3097 11.1842C27.259 11.0665 27.2063 10.9492 27.1521 10.8329C27.1273 10.7808 27.1024 10.7282 27.077 10.6766C27.0165 10.5521 26.954 10.4296 26.8896 10.3075C26.8755 10.2809 26.8613 10.2539 26.8467 10.2274C26.8311 10.1989 26.816 10.1704 26.8003 10.142C26.7735 10.0937 26.7462 10.0445 26.7189 9.99673C26.6915 9.94848 26.6637 9.90023 26.6359 9.85246C26.5583 9.7188 26.4773 9.58659 26.3939 9.45583C26.3656 9.41095 26.3368 9.36608 26.3075 9.3212C26.2743 9.27102 26.2417 9.22132 26.208 9.1721C26.0284 8.90672 25.8391 8.6476 25.6395 8.39669C25.5663 8.30453 25.4917 8.21333 25.4156 8.1231C25.3951 8.09801 25.3736 8.07389 25.3531 8.04879C25.3214 8.01164 25.2897 7.97497 25.258 7.93878C24.9637 7.60343 24.652 7.28352 24.3241 6.98049L25.6552 5.5918C26.7945 6.64514 27.7626 7.87895 28.5115 9.24641C29.6201 11.2706 30.2496 13.5891 30.2496 16.0529L30.2471 16.0548Z" fill="#2F58F2"/>
<path id="Vector_4" d="M22.0067 3.10249L21.217 4.95885C21.1789 4.93979 21.1398 4.92126 21.1016 4.90323C21.063 4.8847 21.0239 4.86667 20.9852 4.84865C20.9533 4.83372 20.9213 4.8193 20.8894 4.80436C20.8756 4.79818 20.8622 4.79201 20.8484 4.78634C20.8159 4.77141 20.7835 4.75751 20.7511 4.7436C20.7129 4.72661 20.6743 4.71065 20.6362 4.69417C20.5913 4.67563 20.547 4.65709 20.5022 4.63855C20.4578 4.62002 20.413 4.60251 20.3682 4.58449C20.3 4.55719 20.2318 4.53093 20.1631 4.50622C20.1412 4.49798 20.1192 4.48922 20.0973 4.4815C20.0753 4.47326 20.0534 4.46502 20.0315 4.45781C19.9881 4.44185 19.9442 4.42691 19.9003 4.41198C19.8498 4.39396 19.7992 4.37697 19.7482 4.361C19.7148 4.34967 19.6814 4.33938 19.6476 4.32856C19.6414 4.32599 19.6361 4.32444 19.6299 4.32238C19.6018 4.31311 19.5737 4.30436 19.5446 4.29561C19.5374 4.29355 19.5307 4.29149 19.5241 4.28891C19.4654 4.27089 19.4068 4.25338 19.3476 4.2369C19.2937 4.22094 19.2398 4.20601 19.1855 4.19107C19.0024 4.14061 18.8168 4.09478 18.6304 4.0541C18.5775 4.04277 18.525 4.03144 18.4716 4.02011C18.4644 4.01857 18.4568 4.01702 18.4501 4.01599C18.4163 4.00878 18.3819 4.00261 18.3485 3.99591C18.3366 3.99334 18.3242 3.99076 18.3123 3.9887C18.2584 3.9784 18.205 3.96862 18.1511 3.95935C18.1244 3.9542 18.0972 3.94957 18.07 3.94545C18.0433 3.94133 18.0166 3.93669 17.9895 3.93257C17.9356 3.92382 17.8817 3.91558 17.8273 3.90734C17.7811 3.90065 17.7343 3.89395 17.6871 3.88777C17.6404 3.88108 17.5927 3.87542 17.5459 3.86975C17.5188 3.86666 17.4911 3.86306 17.4639 3.86048C17.4558 3.85894 17.4472 3.85842 17.4386 3.85791C17.4091 3.8543 17.3786 3.8507 17.3485 3.84813C17.3328 3.84607 17.3175 3.84452 17.3013 3.84298C17.2722 3.83989 17.2426 3.8368 17.2136 3.83422C17.2083 3.83371 17.2031 3.83319 17.1978 3.83319C17.1339 3.82701 17.07 3.82238 17.0047 3.81723C16.9699 3.81465 16.9351 3.81208 16.9002 3.81002C16.8144 3.80435 16.729 3.79972 16.6423 3.79663C16.595 3.79457 16.5473 3.79303 16.5001 3.792C16.4377 3.78994 16.3747 3.78891 16.3118 3.78839C16.2646 3.78788 16.2164 3.78736 16.1687 3.78736H16.1382V1.74512H16.1687C18.2503 1.74512 20.227 2.23019 22.0058 3.10198L22.0067 3.10249Z" fill="#2F58F2"/>
<path id="Vector_5" d="M16.1383 30.1533V32.0001C13.6116 31.9959 11.2191 31.4424 9.08203 30.4571L9.90075 28.7864C11.7897 29.6587 13.9048 30.1486 16.1383 30.1533Z" fill="#2F58F2"/>
<path id="Vector_6" d="M16.139 26.5587V28.5092C15.9755 28.5088 15.8121 28.5054 15.6501 28.4982C15.6262 28.4977 15.6034 28.4963 15.5795 28.4953C15.5614 28.4948 15.5438 28.4939 15.5257 28.4929C15.4928 28.4915 15.4604 28.4896 15.4275 28.4872C15.4261 28.4872 15.4242 28.4872 15.4223 28.4867C15.3713 28.4843 15.3218 28.4804 15.2708 28.4766C15.266 28.4766 15.2617 28.4761 15.257 28.4757C15.2041 28.4718 15.1507 28.4675 15.0978 28.4632C15.0449 28.4584 14.992 28.4536 14.9391 28.4478C14.9191 28.4464 14.8981 28.4445 14.8777 28.4416C14.8434 28.4382 14.8095 28.4344 14.7757 28.4306C14.75 28.4282 14.7247 28.4248 14.699 28.4214C14.6566 28.4162 14.6146 28.4114 14.5722 28.4056C14.5441 28.4023 14.5155 28.3979 14.4869 28.3941C14.4583 28.3907 14.4298 28.3864 14.4012 28.3821C14.3449 28.374 14.2878 28.3653 14.2315 28.3562C14.1925 28.35 14.1539 28.3442 14.1153 28.337C14.0414 28.325 13.968 28.3116 13.8942 28.2977C13.8665 28.2924 13.8384 28.2871 13.8103 28.2814C13.7827 28.2761 13.755 28.2708 13.7269 28.2646C13.7026 28.2598 13.6783 28.255 13.6535 28.2492C13.6288 28.244 13.6049 28.2392 13.5802 28.2334C13.5211 28.2209 13.462 28.2075 13.4029 28.1941C13.0698 28.1163 12.7415 28.0252 12.4194 27.9211C12.3961 27.9134 12.3727 27.9058 12.3494 27.8981C12.1545 27.8338 11.9615 27.7647 11.7709 27.6908C11.7247 27.6731 11.6785 27.6549 11.6318 27.6362C11.586 27.6179 11.5407 27.5992 11.495 27.58C11.3292 27.5114 11.1657 27.439 11.0042 27.3632C10.9623 27.344 10.9203 27.3239 10.8784 27.3032C10.876 27.3023 10.8732 27.3013 10.8708 27.2999C10.8636 27.2965 10.857 27.2932 10.8503 27.2898C10.8127 27.2716 10.775 27.2533 10.7374 27.2342C10.663 27.1972 10.5887 27.1598 10.5153 27.1205C10.4863 27.1051 10.4567 27.0898 10.4276 27.0744C10.3986 27.0586 10.369 27.0432 10.34 27.0269C10.3109 27.0111 10.2823 26.9957 10.2532 26.9794C10.2242 26.9631 10.1956 26.9468 10.1665 26.931C10.1093 26.8984 10.0517 26.8657 9.99499 26.8317C9.93828 26.7981 9.8811 26.7645 9.82488 26.73C9.76246 26.6921 9.70003 26.6528 9.63809 26.6134C9.58853 26.5818 9.53945 26.5501 9.49085 26.518C9.46322 26.5002 9.43558 26.482 9.40842 26.4633C9.36744 26.4364 9.32694 26.4091 9.28643 26.3812C9.25737 26.3616 9.22878 26.3419 9.19971 26.3213C9.16159 26.2944 9.12347 26.268 9.08583 26.2407C9.06725 26.2277 9.04866 26.2143 9.03008 26.2009C8.99815 26.1778 8.9667 26.1548 8.93526 26.1313C8.90333 26.1083 8.87236 26.0853 8.84043 26.0613C8.78897 26.0224 8.73799 25.9826 8.687 25.9433C8.63077 25.8996 8.57455 25.8555 8.51927 25.8104C8.4964 25.7926 8.47401 25.7744 8.45161 25.7562C8.4011 25.7149 8.35202 25.6741 8.30247 25.6319C8.27721 25.6113 8.25243 25.5897 8.22813 25.5686C8.09138 25.4511 7.957 25.3311 7.82549 25.2079C7.7807 25.1656 7.73639 25.1239 7.69255 25.0807C7.52435 24.9191 7.36091 24.7517 7.20223 24.5804C7.15601 24.53 7.10979 24.4797 7.06452 24.4283C7.05642 24.4192 7.04832 24.4106 7.0407 24.4019C6.99734 24.354 6.95445 24.3046 6.913 24.2556C6.90966 24.2523 6.9068 24.2489 6.90394 24.2456C6.87345 24.2101 6.84248 24.1741 6.81246 24.1376C6.67761 23.9769 6.54657 23.8129 6.4203 23.6454C6.39076 23.6066 6.36121 23.5673 6.33262 23.5284C6.25924 23.4296 6.18777 23.3298 6.11772 23.2286C6.11677 23.2271 6.11582 23.2262 6.11534 23.2247C6.09533 23.196 6.07484 23.1672 6.0553 23.1374C6.031 23.1015 6.00718 23.066 5.98287 23.0295C5.88329 22.8798 5.78703 22.7287 5.69459 22.5747C5.67649 22.5445 5.6579 22.5138 5.6398 22.4831C5.62121 22.451 5.60215 22.4188 5.58357 22.3862C5.5607 22.3478 5.53878 22.309 5.51734 22.2701C5.51019 22.2581 5.50304 22.2456 5.49685 22.2337C5.47588 22.1958 5.45444 22.1579 5.43395 22.1195C5.42823 22.1104 5.42347 22.1008 5.41822 22.0912C5.39202 22.0437 5.36629 21.9952 5.34103 21.9473C5.32435 21.9156 5.30815 21.8844 5.29243 21.8532C5.15949 21.5961 5.0356 21.3342 4.92171 21.0675C4.90932 21.0387 4.89694 21.0099 4.88502 20.9811C4.8307 20.8521 4.77829 20.7216 4.72921 20.5902C4.71158 20.5441 4.69443 20.4981 4.67727 20.452C4.66584 20.4213 4.6544 20.3901 4.64344 20.3594C4.61151 20.2707 4.58102 20.1819 4.55148 20.0922C4.53861 20.0519 4.52479 20.0116 4.5124 19.9713C4.49334 19.9123 4.47523 19.8538 4.45713 19.7943C4.4557 19.79 4.45427 19.7852 4.45332 19.7804C4.43664 19.7257 4.42044 19.6706 4.40471 19.6154C4.40376 19.612 4.40281 19.6082 4.40186 19.6048L6.1487 19.0776C6.47891 20.1872 6.98638 21.2205 7.63823 22.143C8.66985 23.6027 10.0636 24.7857 11.688 25.5581C13.0374 26.2004 14.5465 26.5597 16.1385 26.5597L16.139 26.5587Z" fill="#2F58F2"/>
<path id="Vector_7" d="M26.1287 19.0265C25.5643 20.909 24.4735 22.5666 23.0256 23.8326C22.0177 24.7132 20.8369 25.4038 19.54 25.8474C18.4745 26.2125 17.3299 26.411 16.1382 26.411V24.5408C17.1137 24.5408 18.0515 24.3806 18.9265 24.0854C19.992 23.7259 20.9646 23.1656 21.7976 22.4504C23.0013 21.4173 23.9143 20.0606 24.3997 18.5164L26.1282 19.027L26.1287 19.0265Z" fill="#2F58F2"/>
<path id="Vector_8" d="M3.6035 9.08249C2.48616 11.1349 1.85011 13.4981 1.85011 16.0125C1.85011 17.3954 2.04263 18.732 2.4017 19.9969C2.8325 21.5152 3.50299 22.929 4.36978 24.1934L2.86175 25.2873C1.87937 23.8572 1.11828 22.2575 0.628972 20.5393C0.219409 19.1029 0 17.5837 0 16.0125C0 13.1696 0.718152 10.4982 1.97987 8.17692C3.10381 6.10809 4.65949 4.31719 6.52234 2.93091L7.61514 4.45495C5.97028 5.67795 4.59673 7.25787 3.6035 9.08297V9.08249Z" fill="#2F58F2"/>
<path id="Vector_9" d="M16.1379 3.83932V5.52356C15.1935 5.52356 14.2776 5.64477 13.4061 5.87115C12.1218 6.20508 10.9338 6.76869 9.89119 7.5153C8.64271 8.40859 7.60304 9.56222 6.85579 10.8946L5.30908 10.0707C5.33228 10.0315 5.35452 9.99142 5.3782 9.95227C5.4014 9.91312 5.4246 9.87351 5.44828 9.83483C5.46568 9.80559 5.48309 9.77635 5.50097 9.74805C5.63872 9.52308 5.78373 9.30282 5.93598 9.08728C5.9558 9.05898 5.97561 9.03115 5.99688 9.00286C6.05392 8.9222 6.11288 8.8425 6.17282 8.76373C6.19215 8.73779 6.21197 8.71185 6.23227 8.68591C6.34634 8.53782 6.46379 8.39255 6.58463 8.24964C6.61605 8.21238 6.64795 8.17512 6.68033 8.13786C6.71272 8.10061 6.74462 8.06382 6.77748 8.0275C6.8031 7.99873 6.8292 7.96949 6.8553 7.94072C6.8756 7.91761 6.89687 7.89544 6.91765 7.87233C6.94811 7.83837 6.97952 7.80489 7.01094 7.77187C7.12211 7.65349 7.2357 7.53699 7.35218 7.42333C7.37587 7.40022 7.39858 7.37758 7.42227 7.35494C7.50685 7.2724 7.59385 7.19081 7.68182 7.11063C7.71759 7.07761 7.75336 7.04601 7.78961 7.01347C7.80411 7.00074 7.81861 6.98753 7.83359 6.9748C7.87178 6.94084 7.90996 6.90735 7.94911 6.87434C8.03322 6.8017 8.11877 6.73001 8.2048 6.65974C8.24782 6.62437 8.29132 6.58946 8.33482 6.55456C8.36914 6.52721 8.40442 6.49985 8.43971 6.47297C8.46001 6.45646 8.48128 6.44043 8.50206 6.42486C8.56296 6.37864 8.62338 6.33289 8.68477 6.28714C8.74663 6.24187 8.8085 6.19706 8.87037 6.15272C8.94625 6.09896 9.02311 6.04566 9.09996 5.99331C9.10044 5.99284 9.10093 5.99237 9.10189 5.99189C9.15313 5.95747 9.20388 5.92351 9.2556 5.88955C9.26816 5.88106 9.28121 5.87257 9.29426 5.86408C9.34646 5.83012 9.39915 5.79664 9.45183 5.76362C9.49098 5.73862 9.5311 5.7141 9.57074 5.69004C9.61037 5.66552 9.65097 5.64099 9.69109 5.61694C9.73072 5.59289 9.77181 5.5693 9.81192 5.54572C9.83996 5.52969 9.86751 5.51318 9.89554 5.49761C9.95016 5.46554 10.0053 5.43489 10.0608 5.40423C10.1 5.38253 10.1401 5.36084 10.1798 5.33961C10.2213 5.31697 10.2624 5.29528 10.3045 5.27358C10.3465 5.25189 10.3881 5.23019 10.4301 5.20897C10.4722 5.18775 10.5137 5.16652 10.5563 5.14577C10.5983 5.12502 10.6404 5.10427 10.6834 5.08398C10.7259 5.0637 10.768 5.04295 10.811 5.02314C10.854 5.00333 10.8966 4.98352 10.9396 4.96372C10.9826 4.94438 11.0261 4.92504 11.0691 4.9057C11.1155 4.88495 11.1619 4.86467 11.2088 4.84486C11.245 4.8293 11.2818 4.81373 11.319 4.79911C11.4983 4.72459 11.6791 4.65432 11.8623 4.58829C11.8879 4.57933 11.913 4.57037 11.9382 4.5614C12.0024 4.53829 12.0667 4.51613 12.131 4.49443C12.1673 4.48264 12.2035 4.46991 12.2403 4.45859C12.2596 4.45198 12.2789 4.44585 12.2983 4.43972C12.3335 4.4284 12.3698 4.41708 12.4056 4.40624C12.4515 4.39161 12.4974 4.37794 12.5433 4.36426C12.5892 4.35011 12.6356 4.3369 12.6815 4.3237C12.7739 4.29729 12.8667 4.27229 12.9604 4.24776C13.0126 4.23409 13.0644 4.22088 13.117 4.20815C13.1958 4.18881 13.2741 4.16994 13.3529 4.15249C13.4138 4.13881 13.4742 4.12561 13.5356 4.1124C13.5999 4.09825 13.6647 4.08552 13.7294 4.07326C13.7942 4.06099 13.8585 4.04826 13.9237 4.03694H13.9242C13.989 4.02562 14.0542 4.01383 14.12 4.00345C14.1209 4.00345 14.1214 4.00345 14.1219 4.00298C14.1862 3.99308 14.251 3.98317 14.3157 3.97374C14.3902 3.96289 14.4646 3.95252 14.5395 3.94261C14.5777 3.93742 14.6169 3.93318 14.655 3.92846C14.7222 3.92044 14.7904 3.9129 14.8576 3.90582C14.8909 3.90252 14.9238 3.89922 14.9576 3.89639C14.9832 3.89356 15.0089 3.89073 15.035 3.88884C15.0606 3.88649 15.0862 3.8846 15.1123 3.88224C15.1819 3.87611 15.2515 3.87139 15.3216 3.86668C15.3457 3.86526 15.3689 3.86338 15.3926 3.86196C15.6391 3.84687 15.8866 3.83885 16.137 3.83838L16.1379 3.83932Z" fill="#2F58F2"/>
<path id="Vector_10" d="M25.2903 10.9621L23.7848 11.7398C23.3513 10.9201 22.7839 10.1794 22.1099 9.54478C21.4294 8.90371 20.6399 8.37065 19.7724 7.97512C18.6688 7.47252 17.4368 7.19191 16.1382 7.19191V5.5918C17.682 5.5918 19.1463 5.92087 20.462 6.51162C21.4989 6.97684 22.4431 7.60405 23.2609 8.36096C24.074 9.11186 24.7612 9.99015 25.2903 10.9626V10.9621Z" fill="#2F58F2"/>
<path id="Vector_11" d="M16.1069 15.857L16.1378 24.6598C16.1277 24.6598 16.1171 24.6598 16.1069 24.6598C11.2949 24.6598 7.33496 20.686 7.33496 15.857C7.33496 11.028 11.2756 7.07113 16.0761 7.0542L16.1069 15.857Z" fill="#2F58F2"/>
<path id="Vector_12" d="M15.999 15.8582V10.5486C16.0051 10.5486 15.9973 10.5486 16.0038 10.5486C18.8756 10.5486 21.2388 12.9455 21.2388 15.8582C21.2388 18.771 18.8642 21.1574 15.999 21.1679V15.8582Z" fill="#2F58F2"/>
</g>
</svg>
