<svg width="48" height="48" viewBox="0 0 48 48" fill="none" xmlns="http://www.w3.org/2000/svg">
<g id="Group 48096946">
<rect id="Rectangle 849" width="48" height="48" rx="4" fill="#272DBC" fill-opacity="0.1"/>
<g id="chat">
<mask id="mask0_4484_25077" style="mask-type:alpha" maskUnits="userSpaceOnUse" x="8" y="8" width="32" height="32">
<rect id="Bounding box" x="8.5" y="8.5" width="31" height="31" fill="#D9D9D9" stroke="#7D7D7D"/>
</mask>
<g mask="url(#mask0_4484_25077)">
<path id="chat_2" d="M10.6785 37.3032V13.3334C10.6785 12.6034 10.9383 11.9788 11.4582 11.4589C11.9781 10.939 12.6027 10.6792 13.3327 10.6792H34.666C35.396 10.6792 36.0206 10.939 36.5405 11.4589C37.0604 11.9788 37.3202 12.6034 37.3202 13.3334V29.3334C37.3202 30.0634 37.0604 30.688 36.5405 31.2079C36.0206 31.7278 35.396 31.9876 34.666 31.9876H15.9993V31.9824L15.9905 31.9912L10.6785 37.3032ZM13.3202 30.9001V30.9303L13.3415 30.9089L14.9045 29.3459H34.666H34.6785V29.3334V13.3334V13.3209H34.666H13.3327H13.3202V13.3334V30.9001ZM26.6535 24.0126V26.6542H16.0118V24.0126H26.6535ZM31.9868 22.6542H16.0118V20.0126H31.9868V22.6542ZM31.9868 18.6542H16.0118V16.0126H31.9868V18.6542Z" fill="#373ED7" stroke="#373ED7" stroke-width="0.025"/>
</g>
</g>
</g>
</svg>
