<svg width="18" height="18" viewBox="0 0 18 18" fill="none" xmlns="http://www.w3.org/2000/svg">
<g id="home">
<g id="Group">
<path id="Vector (Stroke)" fill-rule="evenodd" clip-rule="evenodd" d="M2.58579 2.58579C2.96086 2.21071 3.46957 2 4 2C4.53043 2 5.03914 2.21071 5.41421 2.58579C5.78929 2.96086 6 3.46957 6 4C6 4.53043 5.78929 5.03914 5.41421 5.41421C5.03914 5.78929 4.53043 6 4 6C3.46957 6 2.96086 5.78929 2.58579 5.41421C2.21071 5.03914 2 4.53043 2 4C2 3.46957 2.21071 2.96086 2.58579 2.58579ZM4 3.25C3.80109 3.25 3.61032 3.32902 3.46967 3.46967C3.32902 3.61032 3.25 3.80109 3.25 4C3.25 4.19891 3.32902 4.38968 3.46967 4.53033C3.61032 4.67098 3.80109 4.75 4 4.75C4.19891 4.75 4.38968 4.67098 4.53033 4.53033C4.67098 4.38968 4.75 4.19891 4.75 4C4.75 3.80109 4.67098 3.61032 4.53033 3.46967C4.38968 3.32902 4.19891 3.25 4 3.25ZM11.5233 2.58579C11.8984 2.21071 12.4071 2 12.9375 2C13.4679 2 13.9766 2.21071 14.3517 2.58579C14.7268 2.96086 14.9375 3.46957 14.9375 4C14.9375 4.53043 14.7268 5.03914 14.3517 5.41421C13.9766 5.78929 13.4679 6 12.9375 6C12.4071 6 11.8984 5.78929 11.5233 5.41421C11.1482 5.03914 10.9375 4.53043 10.9375 4C10.9375 3.46957 11.1482 2.96086 11.5233 2.58579ZM12.9375 3.25C12.7386 3.25 12.5478 3.32902 12.4072 3.46967C12.2665 3.61032 12.1875 3.80109 12.1875 4C12.1875 4.19891 12.2665 4.38968 12.4072 4.53033C12.5478 4.67098 12.7386 4.75 12.9375 4.75C13.1364 4.75 13.3272 4.67098 13.4678 4.53033C13.6085 4.38968 13.6875 4.19891 13.6875 4C13.6875 3.80109 13.6085 3.61032 13.4678 3.46967C13.3272 3.32902 13.1364 3.25 12.9375 3.25ZM6.42601 5.73851C7.05895 5.10558 7.91739 4.75 8.8125 4.75C9.70761 4.75 10.5661 5.10558 11.199 5.73851C11.8319 6.37145 12.1875 7.22989 12.1875 8.125C12.1875 9.02011 11.8319 9.87855 11.199 10.5115C10.5661 11.1444 9.70761 11.5 8.8125 11.5C7.91739 11.5 7.05895 11.1444 6.42601 10.5115C5.79308 9.87855 5.4375 9.02011 5.4375 8.125C5.4375 7.22989 5.79308 6.37145 6.42601 5.73851ZM8.8125 6C8.24892 6 7.70841 6.22388 7.3099 6.6224C6.91138 7.02091 6.6875 7.56141 6.6875 8.125C6.6875 8.68859 6.91138 9.22909 7.3099 9.6276C7.70841 10.0261 8.24892 10.25 8.8125 10.25C9.37609 10.25 9.91659 10.0261 10.3151 9.6276C10.7136 9.22909 10.9375 8.68859 10.9375 8.125C10.9375 7.56141 10.7136 7.02091 10.3151 6.6224C9.91659 6.22388 9.37609 6 8.8125 6ZM2.78715 11.7247C3.29115 11.2206 3.97473 10.9375 4.6875 10.9375C5.40027 10.9375 6.08385 11.2206 6.58785 11.7247C7.09185 12.2287 7.375 12.9122 7.375 13.625C7.375 14.3378 7.09185 15.0213 6.58785 15.5254C6.08385 16.0294 5.40027 16.3125 4.6875 16.3125C3.97473 16.3125 3.29115 16.0294 2.78715 15.5254C2.28315 15.0213 2 14.3378 2 13.625C2 12.9122 2.28315 12.2287 2.78715 11.7247ZM4.6875 12.1875C4.30625 12.1875 3.94062 12.339 3.67103 12.6085C3.40145 12.8781 3.25 13.2438 3.25 13.625C3.25 14.0062 3.40145 14.3719 3.67103 14.6415C3.94062 14.9111 4.30625 15.0625 4.6875 15.0625C5.06875 15.0625 5.43438 14.9111 5.70397 14.6415C5.97355 14.3719 6.125 14.0062 6.125 13.625C6.125 13.2438 5.97355 12.8781 5.70397 12.6085C5.43438 12.339 5.06875 12.1875 4.6875 12.1875ZM12.4122 12.4122C12.9162 11.9081 13.5997 11.625 14.3125 11.625C15.0253 11.625 15.7088 11.9081 16.2129 12.4122C16.7169 12.9162 17 13.5997 17 14.3125C17 15.0253 16.7169 15.7088 16.2129 16.2129C15.7088 16.7169 15.0253 17 14.3125 17C13.5997 17 12.9162 16.7169 12.4122 16.2129C11.9081 15.7088 11.625 15.0253 11.625 14.3125C11.625 13.5997 11.9081 12.9162 12.4122 12.4122ZM14.3125 12.875C13.9313 12.875 13.5656 13.0265 13.296 13.296C13.0265 13.5656 12.875 13.9313 12.875 14.3125C12.875 14.6937 13.0265 15.0594 13.296 15.329C13.5656 15.5985 13.9313 15.75 14.3125 15.75C14.6937 15.75 15.0594 15.5985 15.329 15.329C15.5985 15.0594 15.75 14.6937 15.75 14.3125C15.75 13.9313 15.5985 13.5656 15.329 13.296C15.0594 13.0265 14.6937 12.875 14.3125 12.875Z" fill="#7D7D7D"/>
<path id="Vector (Stroke)_2" fill-rule="evenodd" clip-rule="evenodd" d="M4.58931 4.59126C4.83339 4.34718 5.22911 4.34718 5.47319 4.59126L6.84819 5.96626C7.09227 6.21034 7.09227 6.60607 6.84819 6.85015C6.60411 7.09422 6.20839 7.09422 5.96431 6.85015L4.58931 5.47514C4.34523 5.23107 4.34523 4.83534 4.58931 4.59126ZM12.0044 4.93501C12.2485 5.17909 12.2485 5.57482 12.0044 5.81889L11.3169 6.5064C11.0729 6.75047 10.6771 6.75047 10.4331 6.5064C10.189 6.26232 10.189 5.86659 10.4331 5.62251L11.1206 4.93501C11.3646 4.69093 11.7604 4.69093 12.0044 4.93501ZM10.4846 9.70141C10.7541 9.48578 11.1474 9.52948 11.363 9.79902L13.4255 12.3771C13.6412 12.6467 13.5975 13.04 13.3279 13.2556C13.0584 13.4713 12.6651 13.4276 12.4495 13.158L10.387 10.5799C10.1713 10.3103 10.215 9.91704 10.4846 9.70141ZM7.87944 10.0913C8.12352 10.3353 8.12352 10.7311 7.87944 10.9751L6.50444 12.3501C6.26036 12.5942 5.86464 12.5942 5.62056 12.3501C5.37648 12.1061 5.37648 11.7103 5.62056 11.4663L6.99556 10.0913C7.23964 9.84718 7.63536 9.84718 7.87944 10.0913Z" fill="#7D7D7D"/>
</g>
</g>
</svg>
