<svg width="18" height="18" viewBox="0 0 18 18" fill="none" xmlns="http://www.w3.org/2000/svg">
<g id="home">
<path id="Vector" d="M15.9946 5.89724L14.9954 2.39744C14.9606 2.27671 14.893 2.17258 14.8027 2.10095C14.7125 2.02933 14.6047 1.99415 14.4958 2.00079H3.50424C3.39529 1.99415 3.28748 2.02933 3.19726 2.10095C3.10705 2.17258 3.03939 2.27671 3.00463 2.39744L2.0054 5.89724C1.9982 5.95917 1.9982 6.02196 2.0054 6.0839V9.5837C2.0054 9.7384 2.05804 9.88676 2.15173 9.99615C2.24543 10.1055 2.37251 10.167 2.50501 10.167H3.00463V16H4.00386V10.167H7.00154V16H14.9954V10.167H15.495C15.6275 10.167 15.7546 10.1055 15.8483 9.99615C15.942 9.88676 15.9946 9.7384 15.9946 9.5837V6.0839C16.0018 6.02196 16.0018 5.95917 15.9946 5.89724ZM13.9961 14.8334H8.00077V10.167H13.9961V14.8334ZM14.9954 9.0004H12.9969V6.6672H11.9977V9.0004H9.49961V6.6672H8.50039V9.0004H6.00231V6.6672H5.00308V9.0004H3.00463V6.17722L3.86396 3.16739H14.136L14.9954 6.17722V9.0004Z" fill="#7D7D7D"/>
</g>
</svg>
