<svg width="18" height="18" viewBox="0 0 18 18" fill="none" xmlns="http://www.w3.org/2000/svg">
<g id="home">
<path id="Vector" d="M2 7.23908C2 6.93049 2.14247 6.63919 2.38606 6.44973L8.13606 1.97751C8.49717 1.69665 9.00283 1.69665 9.36394 1.97751L15.1139 6.44973C15.3575 6.63919 15.5 6.93049 15.5 7.23908V15C15.5 15.3978 15.342 15.7794 15.0607 16.0607C14.7794 16.342 14.3978 16.5 14 16.5H3.5C3.10218 16.5 2.72064 16.342 2.43934 16.0607C2.15804 15.7794 2 15.3978 2 15V7.23908Z" stroke="#7D7D7D" stroke-width="1.5" stroke-linecap="round" stroke-linejoin="round"/>
<path id="Vector_2" d="M7 16V10C7 9.44772 7.44772 9 8 9H10C10.5523 9 11 9.44772 11 10V16" stroke="#7D7D7D" stroke-width="1.5" stroke-linecap="round" stroke-linejoin="round"/>
</g>
</svg>
