<svg width="18" height="18" viewBox="0 0 18 18" fill="none" xmlns="http://www.w3.org/2000/svg">
<g id="home">
<path id="Vector" d="M8.23692 9.91304V14.7826H2.20615V9.91304H8.23692ZM8.23692 8.69565H2.20615C1.88626 8.69565 1.57947 8.82391 1.35327 9.05222C1.12708 9.28052 1 9.59017 1 9.91304V14.7826C1 15.1055 1.12708 15.4151 1.35327 15.6434C1.57947 15.8717 1.88626 16 2.20615 16H8.23692C8.55682 16 8.86361 15.8717 9.0898 15.6434C9.316 15.4151 9.44308 15.1055 9.44308 14.7826V9.91304C9.44308 9.59017 9.316 9.28052 9.0898 9.05222C8.86361 8.82391 8.55682 8.69565 8.23692 8.69565ZM14.8708 3.21739V6.26087H8.84V3.21739H14.8708ZM14.8708 2H8.84C8.52011 2 8.21332 2.12826 7.98712 2.35657C7.76092 2.58487 7.63385 2.89452 7.63385 3.21739V6.26087C7.63385 6.58374 7.76092 6.89339 7.98712 7.12169C8.21332 7.35 8.52011 7.47826 8.84 7.47826H14.8708C15.1907 7.47826 15.4975 7.35 15.7236 7.12169C15.9498 6.89339 16.0769 6.58374 16.0769 6.26087V3.21739C16.0769 2.89452 15.9498 2.58487 15.7236 2.35657C15.4975 2.12826 15.1907 2 14.8708 2ZM14.8708 9.91304V12.9565H11.8554V9.91304H14.8708ZM14.8708 8.69565H11.8554C11.5355 8.69565 11.2287 8.82391 11.0025 9.05222C10.7763 9.28052 10.6492 9.59017 10.6492 9.91304V12.9565C10.6492 13.2794 10.7763 13.589 11.0025 13.8173C11.2287 14.0457 11.5355 14.1739 11.8554 14.1739H14.8708C15.1907 14.1739 15.4975 14.0457 15.7236 13.8173C15.9498 13.589 16.0769 13.2794 16.0769 12.9565V9.91304C16.0769 9.59017 15.9498 9.28052 15.7236 9.05222C15.4975 8.82391 15.1907 8.69565 14.8708 8.69565ZM5.22154 3.21739V6.26087H2.20615V3.21739H5.22154ZM5.22154 2H2.20615C1.88626 2 1.57947 2.12826 1.35327 2.35657C1.12708 2.58487 1 2.89452 1 3.21739V6.26087C1 6.58374 1.12708 6.89339 1.35327 7.12169C1.57947 7.35 1.88626 7.47826 2.20615 7.47826H5.22154C5.54143 7.47826 5.84822 7.35 6.07442 7.12169C6.30062 6.89339 6.42769 6.58374 6.42769 6.26087V3.21739C6.42769 2.89452 6.30062 2.58487 6.07442 2.35657C5.84822 2.12826 5.54143 2 5.22154 2Z" fill="#7D7D7D"/>
</g>
</svg>
