<svg width="32" height="32" viewBox="0 0 32 32" fill="none" xmlns="http://www.w3.org/2000/svg">
<g id="home">
<mask id="mask0_4484_25055" style="mask-type:alpha" maskUnits="userSpaceOnUse" x="0" y="0" width="32" height="32">
<rect id="Bounding box" x="0.5" y="0.5" width="31" height="31" fill="#D9D9D9" stroke="#7D7D7D"/>
</mask>
<g mask="url(#mask0_4484_25055)">
<path id="home_2" d="M7.98815 25.3334V25.3459H8.00065H12.0007H12.0132V25.3334V17.3459H19.9882V25.3334V25.3459H20.0007H24.0007H24.0132V25.3334V13.3334H24.0215L24.0082 13.3234L16.0082 7.32341L16.0007 7.31779L15.9932 7.32341L7.99315 13.3234L7.98815 13.3167V13.3334V25.3334ZM6.40804 11.2102L6.40815 11.2101L14.408 5.21019C14.408 5.21017 14.4081 5.21016 14.4081 5.21014C14.6515 5.03308 14.9059 4.90039 15.1713 4.81194C15.4366 4.72349 15.7131 4.67925 16.0007 4.67925C16.2882 4.67925 16.5647 4.72349 16.83 4.81194C17.0954 4.90039 17.3498 5.03308 17.5932 5.21014C17.5933 5.21016 17.5933 5.21017 17.5933 5.21019L25.5932 11.2101L25.5933 11.2102C25.925 11.4534 26.1848 11.763 26.3728 12.139C26.5608 12.515 26.6548 12.9131 26.6548 13.3334V25.3334C26.6548 26.0634 26.395 26.688 25.8751 27.2079C25.3552 27.7278 24.7306 27.9876 24.0007 27.9876H17.3465V20.0001V19.9876H17.334H14.6673H14.6548V20.0001V27.9876H8.00065C7.27066 27.9876 6.64605 27.7278 6.12616 27.2079C5.60626 26.688 5.34648 26.0634 5.34648 25.3334V13.3334C5.34648 12.9131 5.44048 12.515 5.6285 12.139C5.81652 11.763 6.07635 11.4534 6.40804 11.2102Z" fill="#7D7D7D" stroke="#7D7D7D" stroke-width="0.025"/>
</g>
</g>
</svg>
