<svg width="18" height="18" viewBox="0 0 18 18" fill="none" xmlns="http://www.w3.org/2000/svg">
<g id="home">
<path id="Vector" d="M9.38487 7.14635C8.65596 7.14635 7.95691 7.44727 7.44149 7.98291C6.92607 8.51856 6.63651 9.24505 6.63651 10.0026C6.63651 10.7601 6.92607 11.4866 7.44149 12.0222C7.95691 12.5579 8.65596 12.8588 9.38487 12.8588C10.1138 12.8588 10.8128 12.5579 11.3283 12.0222C11.8437 11.4866 12.1332 10.7601 12.1332 10.0026C12.1332 9.24505 11.8437 8.51856 11.3283 7.98291C10.8128 7.44727 10.1138 7.14635 9.38487 7.14635ZM7.73586 10.0026C7.73586 9.54806 7.90959 9.11216 8.21884 8.79078C8.52809 8.46939 8.94752 8.28884 9.38487 8.28884C9.82222 8.28884 10.2416 8.46939 10.5509 8.79078C10.8601 9.11216 11.0339 9.54806 11.0339 10.0026C11.0339 10.4571 10.8601 10.893 10.5509 11.2144C10.2416 11.5358 9.82222 11.7163 9.38487 11.7163C8.94752 11.7163 8.52809 11.5358 8.21884 11.2144C7.90959 10.893 7.73586 10.4571 7.73586 10.0026ZM7.64791 17.7875C8.21682 17.9286 8.80002 18 9.38487 18C9.96918 17.9991 10.5514 17.9272 11.1196 17.7858C11.2829 17.7458 11.4303 17.6543 11.5415 17.5237C11.6527 17.3932 11.7223 17.2301 11.7408 17.0569L11.8694 15.8401C11.8818 15.7074 11.9244 15.5796 11.9937 15.4674C12.0631 15.3552 12.1571 15.2617 12.2681 15.1947C12.379 15.1278 12.5037 15.0892 12.6319 15.0822C12.76 15.0752 12.8879 15.1001 13.005 15.1546L14.0796 15.6436C14.2334 15.714 14.4045 15.7328 14.5691 15.6975C14.7337 15.6622 14.8837 15.5745 14.9981 15.4465C15.7921 14.5574 16.3848 13.4951 16.7329 12.3372C16.7828 12.1698 16.7813 11.9903 16.7286 11.8238C16.6759 11.6572 16.5746 11.5118 16.4388 11.4078L15.4884 10.6795C15.3846 10.6009 15.3002 10.4979 15.242 10.3788C15.1839 10.2598 15.1536 10.1282 15.1538 9.99471C15.154 9.86122 15.1845 9.72967 15.2429 9.61081C15.3014 9.49194 15.3861 9.38914 15.4901 9.31079L16.4355 8.58531C16.5721 8.48156 16.674 8.33598 16.7269 8.16899C16.7799 8.00201 16.7812 7.82198 16.7307 7.65418C16.3833 6.49592 15.7903 5.43341 14.9954 4.5449C14.8804 4.41719 14.7302 4.32966 14.5654 4.29436C14.4006 4.25907 14.2294 4.27774 14.0752 4.34782L13.0056 4.8368C12.8883 4.88991 12.7607 4.91361 12.633 4.90598C12.5053 4.89835 12.3812 4.8596 12.2705 4.79286C12.1599 4.72613 12.066 4.63328 11.9963 4.52183C11.9266 4.41038 11.8831 4.28345 11.8694 4.15131L11.7397 2.94027C11.7215 2.76493 11.6509 2.59991 11.5378 2.46844C11.4247 2.33697 11.2748 2.24566 11.1092 2.20736C10.5447 2.07629 9.96869 2.00679 9.39037 2C8.80862 2.00716 8.22913 2.07665 7.6611 2.20736C7.49544 2.24501 7.34539 2.33589 7.23223 2.46713C7.11907 2.59838 7.04853 2.76331 7.03063 2.93856L6.90036 4.15074C6.88613 4.28308 6.84227 4.41013 6.77231 4.52169C6.70234 4.63326 6.60821 4.72625 6.49745 4.79321C6.38669 4.86018 6.26238 4.89926 6.13448 4.90732C6.00657 4.91539 5.87863 4.89222 5.76089 4.83966L4.69123 4.3501C4.53689 4.28198 4.36618 4.26462 4.20206 4.30036C4.03795 4.33611 3.88831 4.42324 3.77328 4.55004C2.97825 5.43941 2.38477 6.50237 2.03632 7.66104C1.98672 7.82841 1.98844 8.00767 2.04122 8.17399C2.09401 8.34031 2.19526 8.48545 2.33094 8.58931L3.27912 9.31593C3.38241 9.39492 3.46638 9.49804 3.52425 9.61697C3.58213 9.7359 3.61228 9.8673 3.61228 10.0006C3.61228 10.1338 3.58213 10.2652 3.52425 10.3842C3.46638 10.5031 3.38241 10.6062 3.27912 10.6852L2.33094 11.4135C2.19475 11.5176 2.09321 11.6633 2.04049 11.8302C1.98777 11.9971 1.9865 12.177 2.03687 12.3447C2.38516 13.5041 2.97864 14.5678 3.77383 15.458C3.84942 15.5424 3.94108 15.6097 4.04298 15.6554C4.14489 15.7011 4.25483 15.7243 4.36582 15.7236C4.47741 15.7236 4.58789 15.6996 4.69068 15.6533L5.76529 15.1626C5.88249 15.11 6.00995 15.0867 6.1374 15.0945C6.26486 15.1024 6.38877 15.1412 6.49916 15.2079C6.60956 15.2746 6.70336 15.3672 6.77304 15.4784C6.84272 15.5896 6.88632 15.7162 6.90036 15.8481L7.02953 17.0626C7.04829 17.2349 7.11773 17.3971 7.22839 17.5269C7.33906 17.6567 7.48555 17.7474 7.64791 17.7875ZM10.6716 16.7216C9.82354 16.9023 8.94895 16.9023 8.10084 16.7216L7.99365 15.7276C7.94126 15.2413 7.71815 14.7922 7.36703 14.4663C7.09212 14.2147 6.75439 14.0491 6.39278 13.9884C6.03118 13.9278 5.66044 13.9746 5.32335 14.1235L4.44058 14.5234C3.87111 13.8457 3.43289 13.0602 3.14995 12.2099L3.93268 11.6089C4.1745 11.4237 4.37107 11.1821 4.50655 10.9035C4.64202 10.6248 4.7126 10.317 4.7126 10.0049C4.7126 9.69268 4.64202 9.38488 4.50655 9.10625C4.37107 8.82763 4.1745 8.58598 3.93268 8.4008L3.1516 7.80156C3.43487 6.9521 3.87307 6.16736 4.44223 5.49031L5.3217 5.89018C5.56411 6.00142 5.82625 6.05863 6.09124 6.05812C6.56313 6.05659 7.01801 5.87486 7.36938 5.54751C7.72075 5.22016 7.9441 4.77002 7.99695 4.28269L8.10359 3.28473C8.52903 3.19904 8.96107 3.15334 9.39366 3.14763C9.82351 3.15334 10.2523 3.19904 10.6744 3.28473L10.7766 4.2787C10.8276 4.76633 11.0501 5.21719 11.4016 5.54457C11.6767 5.79767 12.0153 5.96428 12.3781 6.02497C12.7408 6.08565 13.1126 6.03792 13.4502 5.88732L14.3297 5.48745C14.8997 6.16431 15.3383 6.94933 15.6214 7.79928L14.8393 8.3968C14.5962 8.58134 14.3985 8.8229 14.2622 9.10182C14.1258 9.38075 14.0548 9.68916 14.0548 10.002C14.0548 10.3148 14.1258 10.6233 14.2622 10.9022C14.3985 11.1811 14.5962 11.4227 14.8393 11.6072L15.6209 12.207C15.3375 13.0554 14.8999 13.8392 14.3319 14.516L13.4524 14.1161C13.1772 13.9888 12.8769 13.931 12.5761 13.9475C12.2753 13.9639 11.9825 14.0541 11.7216 14.2106C11.4608 14.3672 11.2393 14.5857 11.0752 14.8482C10.9112 15.1108 10.8092 15.41 10.7777 15.7213L10.6716 16.7216Z" fill="#7D7D7D"/>
</g>
</svg>
