<svg width="18" height="18" viewBox="0 0 18 18" fill="none" xmlns="http://www.w3.org/2000/svg">
<g id="leanr">
<path id="Vector" d="M3.86667 1.93333H11.3333C11.5809 1.93333 11.8183 2.03167 11.9933 2.2067C12.1683 2.38173 12.2667 2.61913 12.2667 2.86667V7.55387C12.5824 7.58247 12.8949 7.64028 13.2 7.72653V2.86667C13.2 2.3716 13.0033 1.8968 12.6533 1.54673C12.3032 1.19667 11.8284 1 11.3333 1H3.86667C3.3716 1 2.8968 1.19667 2.54673 1.54673C2.19667 1.8968 2 2.3716 2 2.86667V14.0667C2 14.5617 2.19667 15.0365 2.54673 15.3866C2.8968 15.7367 3.3716 15.9333 3.86667 15.9333H7.83987C7.60215 15.6454 7.39654 15.3325 7.22667 15H3.86667C3.61913 15 3.38173 14.9017 3.2067 14.7266C3.03167 14.5516 2.93333 14.3142 2.93333 14.0667H6.85987C6.77351 13.7616 6.7157 13.4491 6.6872 13.1333H2.93333V2.86667C2.93333 2.61913 3.03167 2.38173 3.2067 2.2067C3.38173 2.03167 3.61913 1.93333 3.86667 1.93333ZM4.8 2.86667C4.55246 2.86667 4.31507 2.965 4.14003 3.14003C3.965 3.31507 3.86667 3.55246 3.86667 3.8V4.73333C3.86667 4.98087 3.965 5.21827 4.14003 5.3933C4.31507 5.56833 4.55246 5.66667 4.8 5.66667H10.4C10.6475 5.66667 10.8849 5.56833 11.06 5.3933C11.235 5.21827 11.3333 4.98087 11.3333 4.73333V3.8C11.3333 3.55246 11.235 3.31507 11.06 3.14003C10.8849 2.965 10.6475 2.86667 10.4 2.86667H4.8ZM10.4 3.8V4.73333H4.8V3.8H10.4ZM16 12.6667C16 13.7806 15.5575 14.8489 14.7698 15.6365C13.9822 16.4242 12.9139 16.8667 11.8 16.8667C10.6861 16.8667 9.6178 16.4242 8.83015 15.6365C8.0425 14.8489 7.6 13.7806 7.6 12.6667C7.6 11.5528 8.0425 10.4845 8.83015 9.69682C9.6178 8.90917 10.6861 8.46667 11.8 8.46667C12.9139 8.46667 13.9822 8.90917 14.7698 9.69682C15.5575 10.4845 16 11.5528 16 12.6667ZM11.352 10.8317C11.2915 10.7902 11.2212 10.7651 11.148 10.7591C11.0748 10.753 11.0013 10.7662 10.9348 10.7972C10.8805 10.8211 10.8314 10.8553 10.7901 10.898C10.7032 10.9871 10.6546 11.1067 10.6548 11.2312V14.1012C10.6542 14.1631 10.6659 14.2244 10.6891 14.2818C10.7123 14.3391 10.7467 14.3913 10.7901 14.4353C10.8327 14.4777 10.8823 14.5124 10.9367 14.538C11.0314 14.5814 11.1388 14.588 11.2381 14.5567C11.2812 14.5425 11.322 14.5224 11.3595 14.4969L13.5024 13.0344C13.5676 12.9914 13.6201 12.9318 13.6545 12.8617C13.69 12.7911 13.7082 12.7131 13.7077 12.6341C13.7073 12.5551 13.6881 12.4774 13.6517 12.4072C13.6152 12.3381 13.5616 12.2796 13.4959 12.2373L11.352 10.8317Z" fill="#7D7D7D"/>
</g>
</svg>
